<svg class="marks" width="326" height="255" version="1.1" xmlns="http://www.w3.org/2000/svg" xmlns:xlink="http://www.w3.org/1999/xlink"><g transform="translate(45,12)"><g class="mark-group"><g transform="translate(0,0)"><rect class="background" width="200" height="200" style="fill: none;"></rect><g class="mark-group"><g transform="translate(0,200)"><rect class="background" width="0" height="0" style="pointer-events: none; fill: none;"></rect><g class="mark-rule" style="pointer-events: none;"></g><g class="mark-rule" style="pointer-events: none;"><line transform="translate(20.5,0)" x2="0" y2="6" style="fill: none; stroke: #000; stroke-width: 1; opacity: 1;"></line><line transform="translate(52.5,0)" x2="0" y2="6" style="fill: none; stroke: #000; stroke-width: 1; opacity: 1;"></line><line transform="translate(84.5,0)" x2="0" y2="6" style="fill: none; stroke: #000; stroke-width: 1; opacity: 1;"></line><line transform="translate(116.5,0)" x2="0" y2="6" style="fill: none; stroke: #000; stroke-width: 1; opacity: 1;"></line><line transform="translate(148.5,0)" x2="0" y2="6" style="fill: none; stroke: #000; stroke-width: 1; opacity: 1;"></line><line transform="translate(180.5,0)" x2="0" y2="6" style="fill: none; stroke: #000; stroke-width: 1; opacity: 1;"></line></g><g class="mark-rule" style="pointer-events: none;"></g><g class="mark-text"><text text-anchor="middle" transform="translate(20.5,19)" style="font: 11px sans-serif; fill: #000; opacity: 1;">2011</text><text text-anchor="middle" transform="translate(52.5,19)" style="font: 11px sans-serif; fill: #000; opacity: 1;">2012</text><text text-anchor="middle" transform="translate(84.5,19)" style="font: 11px sans-serif; fill: #000; opacity: 1;">2013</text><text text-anchor="middle" transform="translate(116.5,19)" style="font: 11px sans-serif; fill: #000; opacity: 1;">2014</text><text text-anchor="middle" transform="translate(148.5,19)" style="font: 11px sans-serif; fill: #000; opacity: 1;">2015</text><text text-anchor="middle" transform="translate(180.5,19)" style="font: 11px sans-serif; fill: #000; opacity: 1;">2016</text></g><g class="mark-path" style="pointer-events: none;"><path transform="translate(0.5,0.5)" d="M0,6V0H200V6" style="fill: none; stroke: #000; stroke-width: 1;"></path></g><g class="mark-text"><text text-anchor="middle" transform="translate(100,35)" style="font: bold 11px sans-serif; fill: #000;">Year</text></g></g></g><g class="mark-group"><g transform="translate(0,0)"><rect class="background" width="0" height="0" style="pointer-events: none; fill: none;"></rect><g class="mark-rule" style="pointer-events: none;"></g><g class="mark-rule" style="pointer-events: none;"><line transform="translate(-6,200.5)" x2="6" y2="0" style="fill: none; stroke: #000; stroke-width: 1; opacity: 1;"></line><line transform="translate(-6,185.1153846153846)" x2="6" y2="0" style="fill: none; stroke: #000; stroke-width: 1; opacity: 1;"></line><line transform="translate(-6,169.73076923076923)" x2="6" y2="0" style="fill: none; stroke: #000; stroke-width: 1; opacity: 1;"></line><line transform="translate(-6,154.34615384615384)" x2="6" y2="0" style="fill: none; stroke: #000; stroke-width: 1; opacity: 1;"></line><line transform="translate(-6,138.96153846153845)" x2="6" y2="0" style="fill: none; stroke: #000; stroke-width: 1; opacity: 1;"></line><line transform="translate(-6,123.57692307692308)" x2="6" y2="0" style="fill: none; stroke: #000; stroke-width: 1; opacity: 1;"></line><line transform="translate(-6,108.1923076923077)" x2="6" y2="0" style="fill: none; stroke: #000; stroke-width: 1; opacity: 1;"></line><line transform="translate(-6,92.8076923076923)" x2="6" y2="0" style="fill: none; stroke: #000; stroke-width: 1; opacity: 1;"></line><line transform="translate(-6,77.42307692307692)" x2="6" y2="0" style="fill: none; stroke: #000; stroke-width: 1; opacity: 1;"></line><line transform="translate(-6,62.03846153846154)" x2="6" y2="0" style="fill: none; stroke: #000; stroke-width: 1; opacity: 1;"></line><line transform="translate(-6,46.653846153846146)" x2="6" y2="0" style="fill: none; stroke: #000; stroke-width: 1; opacity: 1;"></line><line transform="translate(-6,31.26923076923077)" x2="6" y2="0" style="fill: none; stroke: #000; stroke-width: 1; opacity: 1;"></line><line transform="translate(-6,15.884615384615374)" x2="6" y2="0" style="fill: none; stroke: #000; stroke-width: 1; opacity: 1;"></line><line transform="translate(-6,0.5)" x2="6" y2="0" style="fill: none; stroke: #000; stroke-width: 1; opacity: 1;"></line></g><g class="mark-rule" style="pointer-events: none;"></g><g class="mark-text"><text text-anchor="end" transform="translate(-9,203.5)" style="font: 11px sans-serif; fill: #000; opacity: 1;">0</text><text text-anchor="end" transform="translate(-9,188.1153846153846)" style="font: 11px sans-serif; fill: #000; opacity: 1;">1</text><text text-anchor="end" transform="translate(-9,172.73076923076923)" style="font: 11px sans-serif; fill: #000; opacity: 1;">2</text><text text-anchor="end" transform="translate(-9,157.34615384615384)" style="font: 11px sans-serif; fill: #000; opacity: 1;">3</text><text text-anchor="end" transform="translate(-9,141.96153846153845)" style="font: 11px sans-serif; fill: #000; opacity: 1;">4</text><text text-anchor="end" transform="translate(-9,126.57692307692308)" style="font: 11px sans-serif; fill: #000; opacity: 1;">5</text><text text-anchor="end" transform="translate(-9,111.1923076923077)" style="font: 11px sans-serif; fill: #000; opacity: 1;">6</text><text text-anchor="end" transform="translate(-9,95.8076923076923)" style="font: 11px sans-serif; fill: #000; opacity: 1;">7</text><text text-anchor="end" transform="translate(-9,80.42307692307692)" style="font: 11px sans-serif; fill: #000; opacity: 1;">8</text><text text-anchor="end" transform="translate(-9,65.03846153846155)" style="font: 11px sans-serif; fill: #000; opacity: 1;">9</text><text text-anchor="end" transform="translate(-9,49.653846153846146)" style="font: 11px sans-serif; fill: #000; opacity: 1;">10</text><text text-anchor="end" transform="translate(-9,34.269230769230774)" style="font: 11px sans-serif; fill: #000; opacity: 1;">11</text><text text-anchor="end" transform="translate(-9,18.884615384615373)" style="font: 11px sans-serif; fill: #000; opacity: 1;">12</text><text text-anchor="end" transform="translate(-9,3.5)" style="font: 11px sans-serif; fill: #000; opacity: 1;">13</text></g><g class="mark-path" style="pointer-events: none;"><path transform="translate(0.5,0.5)" d="M-6,0H0V200H-6" style="fill: none; stroke: #000; stroke-width: 1;"></path></g><g class="mark-text"><text text-anchor="middle" transform="translate(-33,100) rotate(-90) translate(0,3)" style="font: bold 11px sans-serif; fill: #000;">Regular Season Wins</text></g></g></g><g class="mark-group"><g transform="translate(7,0)"><rect class="background" width="26" height="0" style="fill: none;"></rect><g class="mark-rect"><rect transform="translate(0,0)" width="12" height="200" style="fill: red; fill-opacity: 1;"></rect><rect transform="translate(13,76.92307692307692)" width="12" height="123.07692307692308" style="fill: black; fill-opacity: 1;"></rect></g></g><g transform="translate(39,0)"><rect class="background" width="26" height="0" style="fill: none;"></rect><g class="mark-rect"><rect transform="translate(0,30.76923076923077)" width="12" height="169.23076923076923" style="fill: red; fill-opacity: 1;"></rect><rect transform="translate(13,138.46153846153845)" width="12" height="61.53846153846155" style="fill: black; fill-opacity: 1;"></rect></g></g><g transform="translate(71,0)"><rect class="background" width="26" height="0" style="fill: none;"></rect><g class="mark-rect"><rect transform="translate(0,15.384615384615374)" width="12" height="184.6153846153846" style="fill: red; fill-opacity: 1;"></rect><rect transform="translate(13,138.46153846153845)" width="12" height="61.53846153846155" style="fill: black; fill-opacity: 1;"></rect></g></g><g transform="translate(103,0)"><rect class="background" width="26" height="0" style="fill: none;"></rect><g class="mark-rect"><rect transform="translate(0,76.92307692307692)" width="12" height="123.07692307692308" style="fill: red; fill-opacity: 1;"></rect><rect transform="translate(13,153.84615384615384)" width="12" height="46.15384615384616" style="fill: black; fill-opacity: 1;"></rect></g></g><g transform="translate(135,0)"><rect class="background" width="26" height="0" style="fill: none;"></rect><g class="mark-rect"><rect transform="translate(0,123.07692307692308)" width="12" height="76.92307692307692" style="fill: red; fill-opacity: 1;"></rect><rect transform="translate(13,92.3076923076923)" width="12" height="107.6923076923077" style="fill: black; fill-opacity: 1;"></rect></g></g><g transform="translate(167,0)"><rect class="background" width="26" height="0" style="fill: none;"></rect><g class="mark-rect"><rect transform="translate(0,184.6153846153846)" width="12" height="15.384615384615387" style="fill: red; fill-opacity: 1;"></rect><rect transform="translate(13,61.53846153846154)" width="12" height="138.46153846153845" style="fill: black; fill-opacity: 1;"></rect></g></g></g><g class="mark-group"><g transform="translate(220.5,0.5)"><rect class="background" width="55" height="47" style="pointer-events: none; fill: none;"></rect><g class="mark-text" style="pointer-events: none;"><text text-anchor="start" transform="translate(3,13)" style="font: bold 11px sans-serif; fill: #000; opacity: 1;">Legend</text></g><g class="mark-symbol" style="pointer-events: none;"><path transform="translate(7.5,23)" d="M0,3.989422804014327A3.989422804014327,3.989422804014327 0 1,1 0,-3.989422804014327A3.989422804014327,3.989422804014327 0 1,1 0,3.989422804014327Z" style="fill: red; stroke: red; stroke-width: 1; opacity: 1;"></path><path transform="translate(7.5,38)" d="M0,3.989422804014327A3.989422804014327,3.989422804014327 0 1,1 0,-3.989422804014327A3.989422804014327,3.989422804014327 0 1,1 0,3.989422804014327Z" style="fill: black; stroke: black; stroke-width: 1; opacity: 1;"></path></g><g class="mark-text" style="pointer-events: none;"><text text-anchor="start" transform="translate(16,26)" style="font: 10px sans-serif; fill: #000; opacity: 1;">49ers</text><text text-anchor="start" transform="translate(16,41)" style="font: 10px sans-serif; fill: #000; opacity: 1;">Raiders</text></g></g></g></g></g></g></svg>